<?xml version="1.0" standalone="no"?>
<!DOCTYPE svg PUBLIC "-//W3C//DTD SVG 20010904//EN"
 "http://www.w3.org/TR/2001/REC-SVG-20010904/DTD/svg10.dtd">
<svg version="1.0" xmlns="http://www.w3.org/2000/svg"
 width="1128.000000pt" height="314.000000pt" viewBox="0 0 1128.000000 314.000000"
 preserveAspectRatio="xMidYMid meet">
<metadata>
Created by potrace 1.16, written by Peter Selinger 2001-2019
</metadata>
<g transform="translate(0.000000,314.000000) scale(0.100000,-0.100000)"
fill="#000000" stroke="none">
<path d="M946 2859 c-453 -48 -769 -476 -827 -1120 -25 -284 25 -625 127 -856
169 -382 524 -601 881 -543 368 59 662 362 772 797 24 94 27 139 8 146 -24 9
-35 -7 -51 -74 -113 -488 -517 -758 -901 -601 -71 29 -169 98 -231 163 -191
200 -297 512 -311 915 -20 569 140 989 414 1086 46 16 77 19 153 16 88 -3 103
-6 172 -41 176 -87 303 -308 324 -562 5 -63 13 -95 28 -118 31 -46 81 -69 139
-64 183 16 210 280 53 516 -159 239 -451 371 -750 340z"/>
<path d="M2702 2849 c-67 -26 -167 -117 -153 -139 9 -12 16 -11 56 8 53 26 85
28 124 7 38 -19 93 -109 99 -162 15 -135 -88 -352 -363 -762 -272 -406 -349
-542 -407 -715 -36 -110 -48 -261 -28 -347 45 -191 206 -336 427 -385 102 -22
279 -15 378 16 244 77 421 260 464 481 18 92 20 97 31 79 4 -8 44 -139 89
-290 45 -151 85 -281 89 -289 11 -20 298 -20 295 0 -1 8 -146 496 -323 1084
-358 1193 -367 1220 -480 1334 -94 95 -190 121 -298 80z m182 -427 c9 -14 345
-1138 361 -1206 19 -80 21 -243 4 -312 -42 -173 -173 -318 -346 -381 -233 -84
-476 3 -571 205 -26 55 -27 64 -26 217 0 139 4 173 26 255 43 157 98 295 197
490 52 102 133 262 181 357 48 95 103 219 121 277 32 100 41 117 53 98z"/>
<path d="M8040 2851 c-119 -26 -189 -55 -276 -113 -226 -151 -298 -425 -173
-658 59 -111 201 -226 335 -270 35 -12 62 -25 59 -29 -2 -5 -39 -21 -80 -36
-160 -58 -300 -179 -369 -318 -54 -111 -69 -189 -63 -337 6 -150 22 -214 84
-340 39 -80 60 -109 133 -181 73 -72 102 -93 191 -137 145 -72 248 -96 414
-95 160 1 281 29 412 97 200 104 327 257 387 470 20 67 15 89 -15 84 -17 -2
-25 -15 -36 -58 -91 -358 -495 -555 -880 -429 -188 61 -336 233 -379 439 -20
93 -14 294 11 390 29 111 98 243 163 308 73 75 132 103 236 113 45 4 82 8 84
8 1 1 2 9 2 20 0 15 -10 19 -62 24 -102 10 -156 34 -219 96 -98 98 -149 238
-149 412 0 174 48 307 150 410 124 125 311 126 433 1 87 -88 131 -215 146
-414 10 -137 25 -172 84 -199 55 -25 93 -24 147 4 69 35 84 64 89 165 7 167
-39 284 -158 403 -82 82 -169 132 -286 165 -93 26 -308 28 -415 5z"/>
<path d="M9879 2857 c-54 -20 -99 -51 -144 -96 -30 -32 -36 -44 -27 -53 9 -9
22 -7 57 10 25 12 59 22 75 22 39 0 94 -49 127 -114 22 -43 25 -59 20 -111
-15 -155 -95 -309 -388 -751 -327 -495 -407 -663 -417 -877 -6 -131 12 -210
68 -295 73 -114 193 -193 352 -234 69 -17 102 -20 203 -15 206 9 346 68 481
202 92 91 143 181 170 300 23 102 24 103 33 85 8 -15 151 -491 168 -559 9 -34
9 -34 158 -34 122 0 150 3 148 14 -6 39 -645 2144 -668 2202 -54 133 -143 245
-230 287 -56 27 -139 35 -186 17z m342 -1018 c96 -321 181 -611 187 -643 17
-83 15 -230 -3 -301 -26 -100 -63 -165 -139 -240 -83 -82 -145 -118 -252 -145
-126 -33 -236 -23 -343 29 -159 77 -233 242 -211 473 22 226 97 432 302 824
147 283 218 437 245 535 9 33 21 58 27 56 6 -2 90 -266 187 -588z"/>
<path d="M3994 2845 c-2 -5 -3 -572 -2 -1260 3 -1250 3 -1250 26 -1250 23 0
23 0 22 1183 0 933 2 1183 12 1180 10 -4 897 -1984 1027 -2292 28 -68 28 -68
175 -69 146 0 146 0 146 1259 0 1259 0 1259 -20 1259 -21 0 -21 0 -21 -1165 0
-641 -4 -1174 -8 -1184 -6 -16 -9 -17 -17 -5 -5 8 -241 540 -526 1183 -516
1168 -516 1168 -663 1170 -91 0 -149 -3 -151 -9z"/>
<path d="M5760 1595 l0 -1260 302 3 c847 7 776 4 843 36 370 180 480 1004 229
1727 -78 228 -180 397 -323 540 -79 78 -111 103 -181 137 -137 67 -163 71
-538 74 l-332 3 0 -1260z m604 1205 c310 -45 539 -400 611 -945 34 -264 29
-550 -16 -795 -60 -335 -184 -567 -342 -645 -50 -24 -58 -25 -269 -25 -131 -1
-224 3 -236 9 -11 6 -27 26 -36 45 -14 31 -16 139 -16 1151 0 1239 -4 1171 64
1201 37 16 144 17 240 4z"/>
</g>
</svg>
